<mxfile host="app.diagrams.net" agent="Mozilla/5.0 (Windows NT 10.0; Win64; x64) AppleWebKit/537.36 (KHTML, like Gecko) Chrome/122.0.0.0 Safari/537.36" version="24.8.0">
  <diagram name="Page-1" id="fbcf5db9-b524-4cd4-e4f3-379dc89c3999">
    <mxGraphModel dx="1114" dy="615" grid="1" gridSize="10" guides="1" tooltips="1" connect="1" arrows="1" fold="1" page="1" pageScale="1" pageWidth="850" pageHeight="1100" background="none" math="0" shadow="0">
      <root>
        <mxCell id="0" />
        <mxCell id="1" parent="0" />
        <mxCell id="94XMLppXCoif677FIQaQ-18" style="edgeStyle=orthogonalEdgeStyle;rounded=0;orthogonalLoop=1;jettySize=auto;html=1;dashed=1;" edge="1" parent="1" source="94XMLppXCoif677FIQaQ-1">
          <mxGeometry relative="1" as="geometry">
            <mxPoint x="330" y="670" as="targetPoint" />
          </mxGeometry>
        </mxCell>
        <mxCell id="94XMLppXCoif677FIQaQ-1" value="系统管理员" style="shape=umlActor;verticalLabelPosition=bottom;verticalAlign=top;html=1;outlineConnect=0;" vertex="1" parent="1">
          <mxGeometry x="315" y="750" width="30" height="60" as="geometry" />
        </mxCell>
        <mxCell id="94XMLppXCoif677FIQaQ-8" value="用户管理" style="ellipse;whiteSpace=wrap;html=1;fillColor=#fff2cc;strokeColor=#d6b656;" vertex="1" parent="1">
          <mxGeometry x="275" y="610" width="110" height="60" as="geometry" />
        </mxCell>
        <mxCell id="94XMLppXCoif677FIQaQ-10" value="角色管理" style="ellipse;whiteSpace=wrap;html=1;fillColor=#fff2cc;strokeColor=#d6b656;" vertex="1" parent="1">
          <mxGeometry x="440" y="650" width="110" height="60" as="geometry" />
        </mxCell>
        <mxCell id="94XMLppXCoif677FIQaQ-11" value="权限管理" style="ellipse;whiteSpace=wrap;html=1;fillColor=#fff2cc;strokeColor=#d6b656;" vertex="1" parent="1">
          <mxGeometry x="490" y="800" width="110" height="60" as="geometry" />
        </mxCell>
        <mxCell id="94XMLppXCoif677FIQaQ-12" value="系统参数配置" style="ellipse;whiteSpace=wrap;html=1;fillColor=#fff2cc;strokeColor=#d6b656;" vertex="1" parent="1">
          <mxGeometry x="280" y="900" width="110" height="60" as="geometry" />
        </mxCell>
        <mxCell id="94XMLppXCoif677FIQaQ-13" value="机构管理" style="ellipse;whiteSpace=wrap;html=1;fillColor=#fff2cc;strokeColor=#d6b656;" vertex="1" parent="1">
          <mxGeometry x="100" y="850" width="110" height="60" as="geometry" />
        </mxCell>
        <mxCell id="94XMLppXCoif677FIQaQ-14" value="日志管理" style="ellipse;whiteSpace=wrap;html=1;fillColor=#fff2cc;strokeColor=#d6b656;" vertex="1" parent="1">
          <mxGeometry x="90" y="690" width="110" height="60" as="geometry" />
        </mxCell>
        <mxCell id="94XMLppXCoif677FIQaQ-23" value="" style="endArrow=classic;html=1;rounded=0;dashed=1;" edge="1" parent="1">
          <mxGeometry width="50" height="50" relative="1" as="geometry">
            <mxPoint x="340" y="758.13" as="sourcePoint" />
            <mxPoint x="440" y="700" as="targetPoint" />
          </mxGeometry>
        </mxCell>
        <mxCell id="94XMLppXCoif677FIQaQ-24" value="" style="endArrow=classic;html=1;rounded=0;entryX=0;entryY=0.5;entryDx=0;entryDy=0;dashed=1;" edge="1" parent="1" target="94XMLppXCoif677FIQaQ-11">
          <mxGeometry width="50" height="50" relative="1" as="geometry">
            <mxPoint x="340" y="770" as="sourcePoint" />
            <mxPoint x="390" y="720" as="targetPoint" />
          </mxGeometry>
        </mxCell>
        <mxCell id="94XMLppXCoif677FIQaQ-25" value="" style="endArrow=classic;html=1;rounded=0;dashed=1;" edge="1" parent="1" target="94XMLppXCoif677FIQaQ-12">
          <mxGeometry width="50" height="50" relative="1" as="geometry">
            <mxPoint x="330" y="800" as="sourcePoint" />
            <mxPoint x="380" y="750" as="targetPoint" />
          </mxGeometry>
        </mxCell>
        <mxCell id="94XMLppXCoif677FIQaQ-26" value="" style="endArrow=classic;html=1;rounded=0;dashed=1;" edge="1" parent="1" target="94XMLppXCoif677FIQaQ-13">
          <mxGeometry width="50" height="50" relative="1" as="geometry">
            <mxPoint x="320" y="800" as="sourcePoint" />
            <mxPoint x="370" y="750" as="targetPoint" />
          </mxGeometry>
        </mxCell>
        <mxCell id="94XMLppXCoif677FIQaQ-27" value="" style="endArrow=classic;html=1;rounded=0;dashed=1;" edge="1" parent="1" target="94XMLppXCoif677FIQaQ-14">
          <mxGeometry width="50" height="50" relative="1" as="geometry">
            <mxPoint x="320" y="760" as="sourcePoint" />
            <mxPoint x="380" y="710" as="targetPoint" />
          </mxGeometry>
        </mxCell>
      </root>
    </mxGraphModel>
  </diagram>
</mxfile>
